<svg xmlns="http://www.w3.org/2000/svg" width="60" height="60" viewBox="0 0 400 400"><style>.st0{opacity:.1;fill:#fff}.st1,.st2{opacity:.3;fill:#fff}.st2{opacity:.15}.st3,.st4{opacity:.2;fill:#fff}.st4{opacity:5.000000e-02}</style><g id="Layer_1"><path class="st0" d="M.3 0h80v80H.3z"/><path class="st1" d="M80.3 0h80v80h-80z"/><path class="st2" d="M160.3 0h80v80h-80z"/><path class="st3" d="M240.3 0h80v80h-80z"/><path class="st1" d="M320.3 0h80v80h-80z"/><path class="st3" d="M.2 80h80v80H.2z"/><path class="st4" d="M80.2 80h80v80h-80z"/><path class="st0" d="M160.2 80h80v80h-80z"/><path class="st4" d="M240.2 80h80v80h-80z"/><path class="st0" d="M320.2 80h80v80h-80z"/><path class="st1" d="M0 160h80v80H0z"/><path class="st3" d="M80 160h80v80H80z"/><path class="st1" d="M160 160h80v80h-80z"/><path class="st2" d="M240 160h80v80h-80z"/><path class="st4" d="M320 160h80v80h-80z"/><path class="st3" d="M0 240h80v80H0z"/><path class="st0" d="M80 240h80v80H80z"/><path class="st4" d="M160 240h80v80h-80z"/><path class="st0" d="M240 240h80v80h-80z"/><path class="st3" d="M320 240h80v80h-80z"/><path class="st4" d="M.2 320h80v80H.2z"/><path class="st2" d="M80.2 320h80v80h-80z"/><path class="st1" d="M160.2 320h80v80h-80z"/><path class="st3" d="M240.2 320h80v80h-80z"/><path class="st2" d="M320.2 320h80v80h-80z"/></g></svg>